<mxfile host="app.diagrams.net" modified="2022-03-11T11:29:39.219Z" agent="5.0 (Windows)" etag="unD1vZYfrWloHhyrGnMi" version="16.1.2" type="github">
  <diagram id="RIr_Z3z-brW9ekywnZ3V" name="Page-1">
    <mxGraphModel dx="2321" dy="709" grid="1" gridSize="10" guides="1" tooltips="1" connect="1" arrows="1" fold="1" page="1" pageScale="1" pageWidth="1100" pageHeight="1600" math="0" shadow="0">
      <root>
        <mxCell id="0" />
        <mxCell id="1" parent="0" />
        <mxCell id="7UH--UajJpkIE5nzS5OI-1" value="folder: project_creation" style="rounded=0;whiteSpace=wrap;html=1;" vertex="1" parent="1">
          <mxGeometry x="320" y="80" width="160" height="40" as="geometry" />
        </mxCell>
        <mxCell id="7UH--UajJpkIE5nzS5OI-5" value="folder: single" style="rounded=0;whiteSpace=wrap;html=1;" vertex="1" parent="1">
          <mxGeometry x="320" y="160" width="160" height="40" as="geometry" />
        </mxCell>
        <mxCell id="7UH--UajJpkIE5nzS5OI-6" value="" style="endArrow=classic;html=1;rounded=0;exitX=0.5;exitY=1;exitDx=0;exitDy=0;entryX=0.5;entryY=0;entryDx=0;entryDy=0;" edge="1" parent="1" source="7UH--UajJpkIE5nzS5OI-1" target="7UH--UajJpkIE5nzS5OI-5">
          <mxGeometry width="50" height="50" relative="1" as="geometry">
            <mxPoint x="320" y="250" as="sourcePoint" />
            <mxPoint x="370" y="200" as="targetPoint" />
          </mxGeometry>
        </mxCell>
        <mxCell id="7UH--UajJpkIE5nzS5OI-11" value="file: create_project.py" style="rounded=0;whiteSpace=wrap;html=1;" vertex="1" parent="1">
          <mxGeometry x="240" y="240" width="160" height="40" as="geometry" />
        </mxCell>
        <mxCell id="7UH--UajJpkIE5nzS5OI-12" value="" style="endArrow=classic;html=1;rounded=0;exitX=0.5;exitY=1;exitDx=0;exitDy=0;entryX=0.5;entryY=0;entryDx=0;entryDy=0;" edge="1" parent="1" source="7UH--UajJpkIE5nzS5OI-5" target="7UH--UajJpkIE5nzS5OI-11">
          <mxGeometry width="50" height="50" relative="1" as="geometry">
            <mxPoint x="370" y="250" as="sourcePoint" />
            <mxPoint x="420" y="200" as="targetPoint" />
          </mxGeometry>
        </mxCell>
        <mxCell id="7UH--UajJpkIE5nzS5OI-15" value="file: create_project_gui.py" style="rounded=0;whiteSpace=wrap;html=1;" vertex="1" parent="1">
          <mxGeometry x="400" y="240" width="160" height="40" as="geometry" />
        </mxCell>
        <mxCell id="7UH--UajJpkIE5nzS5OI-16" value="" style="endArrow=classic;html=1;rounded=0;exitX=0.5;exitY=1;exitDx=0;exitDy=0;entryX=0.5;entryY=0;entryDx=0;entryDy=0;" edge="1" parent="1" source="7UH--UajJpkIE5nzS5OI-5" target="7UH--UajJpkIE5nzS5OI-15">
          <mxGeometry width="50" height="50" relative="1" as="geometry">
            <mxPoint x="430" y="260" as="sourcePoint" />
            <mxPoint x="480" y="210" as="targetPoint" />
          </mxGeometry>
        </mxCell>
        <mxCell id="7UH--UajJpkIE5nzS5OI-18" value="" style="endArrow=classic;html=1;rounded=0;exitX=0.5;exitY=1;exitDx=0;exitDy=0;entryX=0.5;entryY=0;entryDx=0;entryDy=0;" edge="1" parent="1" source="7UH--UajJpkIE5nzS5OI-11" target="7UH--UajJpkIE5nzS5OI-135">
          <mxGeometry width="50" height="50" relative="1" as="geometry">
            <mxPoint x="460" y="300" as="sourcePoint" />
            <mxPoint x="160" y="320" as="targetPoint" />
          </mxGeometry>
        </mxCell>
        <mxCell id="7UH--UajJpkIE5nzS5OI-19" value="def split_chunk_by_sensors()" style="rounded=0;whiteSpace=wrap;html=1;" vertex="1" parent="1">
          <mxGeometry x="40" y="280" width="160" height="40" as="geometry" />
        </mxCell>
        <mxCell id="7UH--UajJpkIE5nzS5OI-20" value="" style="endArrow=classic;html=1;rounded=0;exitX=0.5;exitY=1;exitDx=0;exitDy=0;entryX=1;entryY=0.5;entryDx=0;entryDy=0;" edge="1" parent="1" source="7UH--UajJpkIE5nzS5OI-11" target="7UH--UajJpkIE5nzS5OI-19">
          <mxGeometry width="50" height="50" relative="1" as="geometry">
            <mxPoint x="460" y="330" as="sourcePoint" />
            <mxPoint x="510" y="280" as="targetPoint" />
          </mxGeometry>
        </mxCell>
        <mxCell id="7UH--UajJpkIE5nzS5OI-34" value="def filter_func()" style="rounded=0;whiteSpace=wrap;html=1;" vertex="1" parent="1">
          <mxGeometry x="-200" y="480" width="160" height="40" as="geometry" />
        </mxCell>
        <mxCell id="7UH--UajJpkIE5nzS5OI-35" value="" style="endArrow=classic;html=1;rounded=0;entryX=1;entryY=0.5;entryDx=0;entryDy=0;" edge="1" parent="1" source="7UH--UajJpkIE5nzS5OI-138" target="7UH--UajJpkIE5nzS5OI-34">
          <mxGeometry width="50" height="50" relative="1" as="geometry">
            <mxPoint x="-30" y="350" as="sourcePoint" />
            <mxPoint x="20" y="300" as="targetPoint" />
          </mxGeometry>
        </mxCell>
        <mxCell id="7UH--UajJpkIE5nzS5OI-37" value="def show_create_offset_dialog()" style="rounded=0;whiteSpace=wrap;html=1;" vertex="1" parent="1">
          <mxGeometry x="560" y="320" width="160" height="40" as="geometry" />
        </mxCell>
        <mxCell id="7UH--UajJpkIE5nzS5OI-39" value="class OffsetFileCreator()" style="rounded=0;whiteSpace=wrap;html=1;" vertex="1" parent="1">
          <mxGeometry x="720" y="320" width="160" height="40" as="geometry" />
        </mxCell>
        <mxCell id="7UH--UajJpkIE5nzS5OI-40" value="def main()" style="rounded=0;whiteSpace=wrap;html=1;" vertex="1" parent="1">
          <mxGeometry x="880" y="320" width="160" height="40" as="geometry" />
        </mxCell>
        <mxCell id="7UH--UajJpkIE5nzS5OI-41" value="" style="endArrow=classic;html=1;rounded=0;exitX=0.5;exitY=1;exitDx=0;exitDy=0;entryX=0.5;entryY=0;entryDx=0;entryDy=0;" edge="1" parent="1" source="7UH--UajJpkIE5nzS5OI-15" target="7UH--UajJpkIE5nzS5OI-87">
          <mxGeometry width="50" height="50" relative="1" as="geometry">
            <mxPoint x="770" y="370" as="sourcePoint" />
            <mxPoint x="480" y="320" as="targetPoint" />
          </mxGeometry>
        </mxCell>
        <mxCell id="7UH--UajJpkIE5nzS5OI-42" value="" style="endArrow=classic;html=1;rounded=0;exitX=0.5;exitY=1;exitDx=0;exitDy=0;entryX=0.5;entryY=0;entryDx=0;entryDy=0;" edge="1" parent="1" source="7UH--UajJpkIE5nzS5OI-15" target="7UH--UajJpkIE5nzS5OI-37">
          <mxGeometry width="50" height="50" relative="1" as="geometry">
            <mxPoint x="770" y="370" as="sourcePoint" />
            <mxPoint x="820" y="320" as="targetPoint" />
          </mxGeometry>
        </mxCell>
        <mxCell id="7UH--UajJpkIE5nzS5OI-43" value="" style="endArrow=classic;html=1;rounded=0;exitX=0.5;exitY=1;exitDx=0;exitDy=0;entryX=0.5;entryY=0;entryDx=0;entryDy=0;" edge="1" parent="1" source="7UH--UajJpkIE5nzS5OI-15" target="7UH--UajJpkIE5nzS5OI-125">
          <mxGeometry width="50" height="50" relative="1" as="geometry">
            <mxPoint x="770" y="370" as="sourcePoint" />
            <mxPoint x="820" y="320" as="targetPoint" />
          </mxGeometry>
        </mxCell>
        <mxCell id="7UH--UajJpkIE5nzS5OI-44" value="" style="endArrow=classic;html=1;rounded=0;exitX=0.5;exitY=1;exitDx=0;exitDy=0;entryX=0.5;entryY=0;entryDx=0;entryDy=0;" edge="1" parent="1" source="7UH--UajJpkIE5nzS5OI-15" target="7UH--UajJpkIE5nzS5OI-39">
          <mxGeometry width="50" height="50" relative="1" as="geometry">
            <mxPoint x="770" y="370" as="sourcePoint" />
            <mxPoint x="820" y="320" as="targetPoint" />
          </mxGeometry>
        </mxCell>
        <mxCell id="7UH--UajJpkIE5nzS5OI-45" value="" style="endArrow=classic;html=1;rounded=0;exitX=0.5;exitY=1;exitDx=0;exitDy=0;entryX=0.5;entryY=0;entryDx=0;entryDy=0;" edge="1" parent="1" source="7UH--UajJpkIE5nzS5OI-15" target="7UH--UajJpkIE5nzS5OI-40">
          <mxGeometry width="50" height="50" relative="1" as="geometry">
            <mxPoint x="770" y="370" as="sourcePoint" />
            <mxPoint x="820" y="320" as="targetPoint" />
          </mxGeometry>
        </mxCell>
        <mxCell id="7UH--UajJpkIE5nzS5OI-83" value="def __init__()" style="rounded=0;whiteSpace=wrap;html=1;" vertex="1" parent="1">
          <mxGeometry x="640" y="400" width="160" height="40" as="geometry" />
        </mxCell>
        <mxCell id="7UH--UajJpkIE5nzS5OI-84" value="def _init_ui()" style="rounded=0;whiteSpace=wrap;html=1;" vertex="1" parent="1">
          <mxGeometry x="800" y="400" width="160" height="40" as="geometry" />
        </mxCell>
        <mxCell id="7UH--UajJpkIE5nzS5OI-85" value="" style="endArrow=classic;html=1;rounded=0;exitX=0.5;exitY=1;exitDx=0;exitDy=0;entryX=0.5;entryY=0;entryDx=0;entryDy=0;" edge="1" parent="1" source="7UH--UajJpkIE5nzS5OI-39" target="7UH--UajJpkIE5nzS5OI-83">
          <mxGeometry width="50" height="50" relative="1" as="geometry">
            <mxPoint x="1180" y="520" as="sourcePoint" />
            <mxPoint x="1230" y="470" as="targetPoint" />
          </mxGeometry>
        </mxCell>
        <mxCell id="7UH--UajJpkIE5nzS5OI-86" value="" style="endArrow=classic;html=1;rounded=0;exitX=0.5;exitY=1;exitDx=0;exitDy=0;entryX=0.5;entryY=0;entryDx=0;entryDy=0;" edge="1" parent="1" source="7UH--UajJpkIE5nzS5OI-39" target="7UH--UajJpkIE5nzS5OI-84">
          <mxGeometry width="50" height="50" relative="1" as="geometry">
            <mxPoint x="1180" y="520" as="sourcePoint" />
            <mxPoint x="1230" y="470" as="targetPoint" />
          </mxGeometry>
        </mxCell>
        <mxCell id="7UH--UajJpkIE5nzS5OI-87" value="class MainDialog()" style="swimlane;fontStyle=0;childLayout=stackLayout;horizontal=1;startSize=30;horizontalStack=0;resizeParent=1;resizeParentMax=0;resizeLast=0;collapsible=1;marginBottom=0;" vertex="1" parent="1">
          <mxGeometry x="200" y="400" width="240" height="360" as="geometry">
            <mxRectangle x="200" y="400" width="240" height="40" as="alternateBounds" />
          </mxGeometry>
        </mxCell>
        <mxCell id="7UH--UajJpkIE5nzS5OI-88" value="def __init__()" style="text;strokeColor=none;fillColor=none;align=left;verticalAlign=middle;spacingLeft=4;spacingRight=4;overflow=hidden;points=[[0,0.5],[1,0.5]];portConstraint=eastwest;rotatable=0;" vertex="1" parent="7UH--UajJpkIE5nzS5OI-87">
          <mxGeometry y="30" width="240" height="30" as="geometry" />
        </mxCell>
        <mxCell id="7UH--UajJpkIE5nzS5OI-89" value="def _init_ui()" style="text;strokeColor=none;fillColor=none;align=left;verticalAlign=middle;spacingLeft=4;spacingRight=4;overflow=hidden;points=[[0,0.5],[1,0.5]];portConstraint=eastwest;rotatable=0;" vertex="1" parent="7UH--UajJpkIE5nzS5OI-87">
          <mxGeometry y="60" width="240" height="30" as="geometry" />
        </mxCell>
        <mxCell id="7UH--UajJpkIE5nzS5OI-90" value="def __progress_func()" style="text;strokeColor=none;fillColor=none;align=left;verticalAlign=middle;spacingLeft=4;spacingRight=4;overflow=hidden;points=[[0,0.5],[1,0.5]];portConstraint=eastwest;rotatable=0;" vertex="1" parent="7UH--UajJpkIE5nzS5OI-87">
          <mxGeometry y="90" width="240" height="30" as="geometry" />
        </mxCell>
        <mxCell id="7UH--UajJpkIE5nzS5OI-104" value="def _use_nav_callback()" style="text;strokeColor=none;fillColor=none;align=left;verticalAlign=middle;spacingLeft=4;spacingRight=4;overflow=hidden;points=[[0,0.5],[1,0.5]];portConstraint=eastwest;rotatable=0;" vertex="1" parent="7UH--UajJpkIE5nzS5OI-87">
          <mxGeometry y="120" width="240" height="30" as="geometry" />
        </mxCell>
        <mxCell id="7UH--UajJpkIE5nzS5OI-105" value="def __get_ reference_type_and_dir()" style="text;strokeColor=none;fillColor=none;align=left;verticalAlign=middle;spacingLeft=4;spacingRight=4;overflow=hidden;points=[[0,0.5],[1,0.5]];portConstraint=eastwest;rotatable=0;" vertex="1" parent="7UH--UajJpkIE5nzS5OI-87">
          <mxGeometry y="150" width="240" height="30" as="geometry" />
        </mxCell>
        <mxCell id="7UH--UajJpkIE5nzS5OI-106" value="def set_working_state()" style="text;strokeColor=none;fillColor=none;align=left;verticalAlign=middle;spacingLeft=4;spacingRight=4;overflow=hidden;points=[[0,0.5],[1,0.5]];portConstraint=eastwest;rotatable=0;" vertex="1" parent="7UH--UajJpkIE5nzS5OI-87">
          <mxGeometry y="180" width="240" height="30" as="geometry" />
        </mxCell>
        <mxCell id="7UH--UajJpkIE5nzS5OI-108" value="def __split_by_cameras()" style="text;strokeColor=none;fillColor=none;align=left;verticalAlign=middle;spacingLeft=4;spacingRight=4;overflow=hidden;points=[[0,0.5],[1,0.5]];portConstraint=eastwest;rotatable=0;" vertex="1" parent="7UH--UajJpkIE5nzS5OI-87">
          <mxGeometry y="210" width="240" height="30" as="geometry" />
        </mxCell>
        <mxCell id="7UH--UajJpkIE5nzS5OI-109" value="def __get_pattern_params()" style="text;strokeColor=none;fillColor=none;align=left;verticalAlign=middle;spacingLeft=4;spacingRight=4;overflow=hidden;points=[[0,0.5],[1,0.5]];portConstraint=eastwest;rotatable=0;" vertex="1" parent="7UH--UajJpkIE5nzS5OI-87">
          <mxGeometry y="240" width="240" height="30" as="geometry" />
        </mxCell>
        <mxCell id="7UH--UajJpkIE5nzS5OI-110" value="def _do_on_unreferenced_offsets()" style="text;strokeColor=none;fillColor=none;align=left;verticalAlign=middle;spacingLeft=4;spacingRight=4;overflow=hidden;points=[[0,0.5],[1,0.5]];portConstraint=eastwest;rotatable=0;" vertex="1" parent="7UH--UajJpkIE5nzS5OI-87">
          <mxGeometry y="270" width="240" height="30" as="geometry" />
        </mxCell>
        <mxCell id="7UH--UajJpkIE5nzS5OI-111" value="def __add_photos()" style="text;strokeColor=none;fillColor=none;align=left;verticalAlign=middle;spacingLeft=4;spacingRight=4;overflow=hidden;points=[[0,0.5],[1,0.5]];portConstraint=eastwest;rotatable=0;" vertex="1" parent="7UH--UajJpkIE5nzS5OI-87">
          <mxGeometry y="300" width="240" height="30" as="geometry" />
        </mxCell>
        <mxCell id="7UH--UajJpkIE5nzS5OI-112" value="def log_values()" style="text;strokeColor=none;fillColor=none;align=left;verticalAlign=middle;spacingLeft=4;spacingRight=4;overflow=hidden;points=[[0,0.5],[1,0.5]];portConstraint=eastwest;rotatable=0;" vertex="1" parent="7UH--UajJpkIE5nzS5OI-87">
          <mxGeometry y="330" width="240" height="30" as="geometry" />
        </mxCell>
        <mxCell id="7UH--UajJpkIE5nzS5OI-125" value="class NewOffset()" style="swimlane;fontStyle=0;childLayout=stackLayout;horizontal=1;startSize=30;horizontalStack=0;resizeParent=1;resizeParentMax=0;resizeLast=0;collapsible=1;marginBottom=0;" vertex="1" parent="1">
          <mxGeometry x="440" y="400" width="160" height="240" as="geometry">
            <mxRectangle x="440" y="400" width="160" height="40" as="alternateBounds" />
          </mxGeometry>
        </mxCell>
        <mxCell id="7UH--UajJpkIE5nzS5OI-126" value="def __init__()" style="text;strokeColor=none;fillColor=none;align=left;verticalAlign=middle;spacingLeft=4;spacingRight=4;overflow=hidden;points=[[0,0.5],[1,0.5]];portConstraint=eastwest;rotatable=0;" vertex="1" parent="7UH--UajJpkIE5nzS5OI-125">
          <mxGeometry y="30" width="160" height="30" as="geometry" />
        </mxCell>
        <mxCell id="7UH--UajJpkIE5nzS5OI-127" value="def _init_ui()" style="text;strokeColor=none;fillColor=none;align=left;verticalAlign=middle;spacingLeft=4;spacingRight=4;overflow=hidden;points=[[0,0.5],[1,0.5]];portConstraint=eastwest;rotatable=0;" vertex="1" parent="7UH--UajJpkIE5nzS5OI-125">
          <mxGeometry y="60" width="160" height="30" as="geometry" />
        </mxCell>
        <mxCell id="7UH--UajJpkIE5nzS5OI-128" value="def default_offset_central()" style="text;strokeColor=none;fillColor=none;align=left;verticalAlign=middle;spacingLeft=4;spacingRight=4;overflow=hidden;points=[[0,0.5],[1,0.5]];portConstraint=eastwest;rotatable=0;" vertex="1" parent="7UH--UajJpkIE5nzS5OI-125">
          <mxGeometry y="90" width="160" height="30" as="geometry" />
        </mxCell>
        <mxCell id="7UH--UajJpkIE5nzS5OI-134" value="def default_offset1()" style="text;strokeColor=none;fillColor=none;align=left;verticalAlign=middle;spacingLeft=4;spacingRight=4;overflow=hidden;points=[[0,0.5],[1,0.5]];portConstraint=eastwest;rotatable=0;" vertex="1" parent="7UH--UajJpkIE5nzS5OI-125">
          <mxGeometry y="120" width="160" height="30" as="geometry" />
        </mxCell>
        <mxCell id="7UH--UajJpkIE5nzS5OI-133" value="def default_offset2()" style="text;strokeColor=none;fillColor=none;align=left;verticalAlign=middle;spacingLeft=4;spacingRight=4;overflow=hidden;points=[[0,0.5],[1,0.5]];portConstraint=eastwest;rotatable=0;" vertex="1" parent="7UH--UajJpkIE5nzS5OI-125">
          <mxGeometry y="150" width="160" height="30" as="geometry" />
        </mxCell>
        <mxCell id="7UH--UajJpkIE5nzS5OI-132" value="def new_offset()" style="text;strokeColor=none;fillColor=none;align=left;verticalAlign=middle;spacingLeft=4;spacingRight=4;overflow=hidden;points=[[0,0.5],[1,0.5]];portConstraint=eastwest;rotatable=0;" vertex="1" parent="7UH--UajJpkIE5nzS5OI-125">
          <mxGeometry y="180" width="160" height="30" as="geometry" />
        </mxCell>
        <mxCell id="7UH--UajJpkIE5nzS5OI-131" value="def cancel()" style="text;strokeColor=none;fillColor=none;align=left;verticalAlign=middle;spacingLeft=4;spacingRight=4;overflow=hidden;points=[[0,0.5],[1,0.5]];portConstraint=eastwest;rotatable=0;" vertex="1" parent="7UH--UajJpkIE5nzS5OI-125">
          <mxGeometry y="210" width="160" height="30" as="geometry" />
        </mxCell>
        <mxCell id="7UH--UajJpkIE5nzS5OI-135" value="class ImagesLoader" style="swimlane;fontStyle=0;childLayout=stackLayout;horizontal=1;startSize=30;horizontalStack=0;resizeParent=1;resizeParentMax=0;resizeLast=0;collapsible=1;marginBottom=0;" vertex="1" parent="1">
          <mxGeometry y="400" width="200" height="180" as="geometry">
            <mxRectangle y="400" width="200" height="40" as="alternateBounds" />
          </mxGeometry>
        </mxCell>
        <mxCell id="7UH--UajJpkIE5nzS5OI-136" value="class PatternBehaviourType()" style="text;strokeColor=none;fillColor=none;align=left;verticalAlign=middle;spacingLeft=4;spacingRight=4;overflow=hidden;points=[[0,0.5],[1,0.5]];portConstraint=eastwest;rotatable=0;" vertex="1" parent="7UH--UajJpkIE5nzS5OI-135">
          <mxGeometry y="30" width="200" height="30" as="geometry" />
        </mxCell>
        <mxCell id="7UH--UajJpkIE5nzS5OI-137" value="def __init__()" style="text;strokeColor=none;fillColor=none;align=left;verticalAlign=middle;spacingLeft=4;spacingRight=4;overflow=hidden;points=[[0,0.5],[1,0.5]];portConstraint=eastwest;rotatable=0;" vertex="1" parent="7UH--UajJpkIE5nzS5OI-135">
          <mxGeometry y="60" width="200" height="30" as="geometry" />
        </mxCell>
        <mxCell id="7UH--UajJpkIE5nzS5OI-138" value="def __get_path_filter_function()" style="text;strokeColor=default;fillColor=none;align=left;verticalAlign=middle;spacingLeft=4;spacingRight=4;overflow=hidden;points=[[0,0.5],[1,0.5]];portConstraint=eastwest;rotatable=0;" vertex="1" parent="7UH--UajJpkIE5nzS5OI-135">
          <mxGeometry y="90" width="200" height="30" as="geometry" />
        </mxCell>
        <mxCell id="7UH--UajJpkIE5nzS5OI-140" value="def __get_files_list()" style="text;strokeColor=none;fillColor=none;align=left;verticalAlign=middle;spacingLeft=4;spacingRight=4;overflow=hidden;points=[[0,0.5],[1,0.5]];portConstraint=eastwest;rotatable=0;" vertex="1" parent="7UH--UajJpkIE5nzS5OI-135">
          <mxGeometry y="120" width="200" height="30" as="geometry" />
        </mxCell>
        <mxCell id="7UH--UajJpkIE5nzS5OI-139" value="def load()" style="text;strokeColor=none;fillColor=none;align=left;verticalAlign=middle;spacingLeft=4;spacingRight=4;overflow=hidden;points=[[0,0.5],[1,0.5]];portConstraint=eastwest;rotatable=0;" vertex="1" parent="7UH--UajJpkIE5nzS5OI-135">
          <mxGeometry y="150" width="200" height="30" as="geometry" />
        </mxCell>
      </root>
    </mxGraphModel>
  </diagram>
</mxfile>
